<?xml version="1.0" encoding="UTF-8"?>
<!--
Icon is created by Aleksandr Vector and is published under CC license by
the Noun project. Is is found here:
https://thenounproject.com/term/tools/1017161
-->
<svg viewBox="0 0 164 164" version="1.1" xmlns="http://www.w3.org/2000/svg" xmlns:xlink="http://www.w3.org/1999/xlink">
    <g id="Style-Tiles" stroke="none" stroke-width="1" fill="none" fill-rule="evenodd">
        <g id="Editor" transform="translate(-593.000000, -260.000000)" fill-rule="nonzero" fill="#31283E">
            <path d="M721.013939,409.617874 C715.126939,403.730874 715.126939,394.186874 721.013939,388.300874 C726.900939,382.414874 736.444939,382.413874 742.330939,388.300874 C748.216939,394.187874 748.216939,403.731874 742.329939,409.617874 C736.444939,415.503874 726.900939,415.504874 721.013939,409.617874 L721.013939,409.617874 Z M638.283939,349.595874 L596.697939,391.180874 C592.055939,395.823874 591.636939,403.001874 596.279939,407.643874 L608.430939,419.794874 C613.072939,424.437874 621.091939,424.858874 625.733939,420.217874 L667.318939,378.631874 L663.522939,374.834874 L674.438939,363.917874 L706.552939,396.032874 C705.781939,403.281874 708.173939,410.803874 713.729939,416.358874 C723.489939,426.117874 739.312939,426.118874 749.072939,416.358874 C758.832939,406.598874 758.832939,390.775874 749.073939,381.016874 C743.452939,375.396874 735.821939,373.014874 728.496939,373.867874 L691.045939,336.417874 L729.536939,297.925874 L738.692939,297.701874 L756.782939,279.611874 L737.352939,260.181874 L719.262939,278.270874 L718.790939,287.179874 L680.300939,325.672874 L654.805939,300.178874 C665.192939,271.759874 634.465939,251.162874 613.096939,263.801874 L630.807939,281.512874 C642.106939,292.811874 625.231939,309.695874 613.927939,298.250874 L596.288939,280.609874 C586.205939,305.190874 603.465939,330.420874 632.057939,321.536874 L653.247939,342.725874 L642.330939,353.643874 L638.283939,349.595874 Z" id="Shape"></path>
        </g>
    </g>
</svg>
