<?xml version="1.0" encoding="UTF-8"?>
<svg width="164px" height="164px" viewBox="0 0 164 164" version="1.1" xmlns="http://www.w3.org/2000/svg" xmlns:xlink="http://www.w3.org/1999/xlink">
    <!-- Generator: Sketch 47.1 (45422) - http://www.bohemiancoding.com/sketch -->
    <title>tools</title>
    <desc>Created with Sketch.</desc>
    <defs></defs>
    <g id="Page-1" stroke="none" stroke-width="1" fill="none" fill-rule="evenodd">
        <g id="tools" fill-rule="nonzero" fill="#FFFFFF">
            <path d="M128.013939,149.617874 C122.126939,143.730874 122.126939,134.186874 128.013939,128.300874 C133.900939,122.414874 143.444939,122.413874 149.330939,128.300874 C155.216939,134.187874 155.216939,143.731874 149.329939,149.617874 C143.444939,155.503874 133.900939,155.504874 128.013939,149.617874 L128.013939,149.617874 Z M45.283939,89.595874 L3.697939,131.180874 C-0.944061,135.823874 -1.363061,143.001874 3.279939,147.643874 L15.430939,159.794874 C20.072939,164.437874 28.091939,164.858874 32.733939,160.217874 L74.318939,118.631874 L70.522939,114.834874 L81.438939,103.917874 L113.552939,136.032874 C112.781939,143.281874 115.173939,150.803874 120.729939,156.358874 C130.489939,166.117874 146.312939,166.118874 156.072939,156.358874 C165.832939,146.598874 165.832939,130.775874 156.073939,121.016874 C150.452939,115.396874 142.821939,113.014874 135.496939,113.867874 L98.045939,76.417874 L136.536939,37.925874 L145.692939,37.701874 L163.782939,19.611874 L144.352939,0.181874 L126.262939,18.270874 L125.790939,27.179874 L87.300939,65.672874 L61.805939,40.178874 C72.192939,11.759874 41.465939,-8.837126 20.096939,3.801874 L37.807939,21.512874 C49.106939,32.811874 32.231939,49.695874 20.927939,38.250874 L3.288939,20.609874 C-6.794061,45.190874 10.465939,70.420874 39.057939,61.536874 L60.247939,82.725874 L49.330939,93.643874 L45.283939,89.595874 Z" id="Shape"></path>
        </g>
    </g>
</svg>