<svg width="101" height="101" viewBox="0 0 101 101" version="1.1" xmlns="http://www.w3.org/2000/svg" xmlns:xlink="http://www.w3.org/1999/xlink">
<g id="Canvas" transform="translate(45 375)">
<g id="Subtract">
<use xlink:href="#path0_fill" transform="translate(-45 -375)" fill="#F67A8A"/>
</g>
</g>
<defs>
<path id="path0_fill" fill-rule="evenodd" d="M 50.5 101C 78.3904 101 101 78.3904 101 50.5C 101 22.6096 78.3904 0 50.5 0C 22.6096 0 0 22.6096 0 50.5C 0 78.3904 22.6096 101 50.5 101ZM 66.449 51.576C 68.6583 49.3371 69.7629 46.0522 69.7629 41.7213C 69.7629 37.4271 68.2418 33.7385 65.1996 30.6555C 62.1935 27.5724 58.8254 26.0309 55.095 26.0309L 32.2784 26.0309L 32.2784 32.6374L 55.095 32.6374C 57.0145 32.6374 58.8435 33.5366 60.5819 35.3351C 62.3565 37.1335 63.2438 39.2622 63.2438 41.7213C 63.2438 44.2171 62.3565 46.3642 60.5819 48.1626C 58.8435 49.9243 57.0145 50.8052 55.095 50.8052L 51.8355 50.8052L 63.2438 73.9279L 69.7629 73.9279L 60.9078 56.0353C 62.429 55.2646 64.276 53.7781 66.449 51.576ZM 59.4411 47.0065C 60.8897 45.5384 61.6141 43.7767 61.6141 41.7213C 61.6141 39.7027 60.8897 37.9593 59.4411 36.4912C 58.0286 35.0231 56.5799 34.289 55.095 34.289L 32.2784 34.289L 32.2784 40.8955L 53.4653 40.8955C 54.5518 40.8955 55.095 41.1708 55.095 41.7213C 55.095 42.2719 54.5518 42.5471 53.4653 42.5471L 32.2784 42.5471L 32.2784 73.9279L 38.7974 73.9279L 38.7974 49.1536L 55.095 49.1536C 56.5799 49.1536 58.0286 48.4379 59.4411 47.0065ZM 55.095 73.9279L 61.6141 73.9279L 50.2057 50.8052L 40.4272 50.8052L 40.4272 73.9279L 46.9462 73.9279L 46.9462 57.4117L 55.095 73.9279Z"/>
</defs>
</svg>
