<?xml version="1.0" encoding="UTF-8"?>
<!--
Icon is created by Nicky Knicky and is published under CC license by
the Noun project. Is is found here: https://thenounproject.com/term/bowie/871160/
-->
<svg width="100px" height="101px" viewBox="0 0 100 101" version="1.1" xmlns="http://www.w3.org/2000/svg" xmlns:xlink="http://www.w3.org/1999/xlink">
    <g stroke="none" stroke-width="1" fill="none" fill-rule="evenodd">
        <g fill-rule="nonzero" fill="#FF9078">
            <g>
                <g transform="translate(21.000000, 45.000000)">
                    <path d="M3.5,10.4 C3.4,10.4 3.3,10.4 3.1,10.3 C2.7,10.1 2.6,9.6 2.8,9.3 L7.4,1 C7.6,0.6 8.1,0.5 8.4,0.7 C8.8,0.9 8.9,1.4 8.7,1.7 L4.2,10 C4,10.3 3.8,10.4 3.5,10.4 Z"></path>
                    <path d="M9.9,8.6 C9.8,8.6 9.7,8.6 9.5,8.5 L1.2,3.9 C0.8,3.7 0.7,3.2 0.9,2.9 C1.1,2.6 1.6,2.4 1.9,2.6 L10.2,7.2 C10.6,7.4 10.7,7.9 10.5,8.2 C10.4,8.4 10.2,8.6 9.9,8.6 Z"></path>
                </g>
                <g transform="translate(76.000000, 17.000000)">
                    <path d="M1.4,8.8 C1.1,8.8 0.9,8.7 0.7,8.4 C0.5,8 0.6,7.6 1,7.4 L9.2,2.7 C9.6,2.5 10,2.6 10.2,3 C10.4,3.4 10.3,3.8 9.9,4 L1.7,8.7 C1.6,8.8 1.5,8.8 1.4,8.8 Z"></path>
                    <path d="M7.9,10.5 C7.6,10.5 7.4,10.4 7.2,10.1 L2.5,2 C2.3,1.6 2.4,1.2 2.8,1 C3.2,0.8 3.6,0.9 3.8,1.3 L8.5,9.5 C8.7,9.9 8.6,10.3 8.2,10.5 C8.1,10.5 8,10.5 7.9,10.5 Z"></path>
                </g>
                <g transform="translate(29.000000, 80.000000)">
                    <path d="M7,11 C6.7,11 6.4,10.8 6.3,10.5 L3.3,1.5 C3.2,1.1 3.4,0.7 3.8,0.5 C4.2,0.4 4.6,0.6 4.7,1 L7.7,10 C7.8,10.4 7.6,10.8 7.2,11 C7.1,11 7,11 7,11 Z"></path>
                    <path d="M1,8 C0.7,8 0.4,7.8 0.3,7.5 C0.2,7.1 0.4,6.7 0.8,6.5 L9.8,3.5 C10.2,3.4 10.6,3.6 10.7,4 C10.8,4.4 10.6,4.8 10.2,5 L1.2,8 C1.1,8 1.1,8 1,8 Z"></path>
                </g>
                <g transform="translate(79.000000, 76.000000)">
                    <path d="M8.2,9.1 C8,9.1 7.9,9 7.7,8.9 L0.4,3 C0.1,2.7 -5.55111512e-17,2.3 0.3,1.9 C0.6,1.6 1,1.5 1.4,1.8 L8.8,7.7 C9.1,8 9.2,8.4 8.9,8.8 C8.7,9 8.5,9.1 8.2,9.1 Z"></path>
                    <path d="M1.6,9.8 C1.4,9.8 1.3,9.7 1.1,9.6 C0.8,9.3 0.7,8.9 1,8.5 L6.9,1.1 C7.2,0.8 7.6,0.7 8,1 C8.3,1.3 8.4,1.7 8.1,2.1 L2.2,9.5 C2,9.7 1.8,9.8 1.6,9.8 Z"></path>
                </g>
                <path d="M35.5,34 C35.2,34 35,33.9 34.8,33.6 C30,24.9 36.4,19.9 36.4,19.8 C36.7,19.5 37.2,19.6 37.5,19.9 C37.8,20.2 37.7,20.7 37.4,20.9 L37.4,20.9 C37.2,21.1 32,25.2 36.2,32.7 C36.4,33.1 36.3,33.5 35.9,33.7 C35.7,33.9 35.6,34 35.5,34 Z"></path>
                <path d="M16.1,28.4 C14.1,28.4 12.4,26.7 12.4,24.7 C12.4,22.7 14.1,21 16.1,21 C18.1,21 19.8,22.7 19.8,24.7 C19.8,26.7 18.2,28.4 16.1,28.4 Z M16.1,22.5 C14.9,22.5 13.9,23.5 13.9,24.7 C13.9,25.9 14.9,26.9 16.1,26.9 C17.3,26.9 18.3,25.9 18.3,24.7 C18.3,23.5 17.3,22.5 16.1,22.5 Z"></path>
                <path d="M58.5,17 C56.5,17 54.8,15.3 54.8,13.3 C54.8,11.3 56.5,9.6 58.5,9.6 C60.5,9.6 62.2,11.3 62.2,13.3 C62.2,15.3 60.5,17 58.5,17 Z M58.5,11.2 C57.3,11.2 56.3,12.2 56.3,13.4 C56.3,14.6 57.3,15.6 58.5,15.6 C59.7,15.6 60.7,14.6 60.7,13.4 C60.7,12.2 59.7,11.2 58.5,11.2 Z"></path>
                <path d="M81.3,45.1 C80,45.1 78.8,44.4 78.1,43.3 C77.1,41.5 77.7,39.3 79.5,38.3 C80.4,37.8 81.3,37.7 82.3,37.9 C83.3,38.2 84,38.8 84.5,39.6 C85,40.5 85.1,41.4 84.9,42.4 C84.7,43.4 84,44.1 83.2,44.6 C82.6,44.9 81.9,45.1 81.3,45.1 Z M81.3,39.2 C80.9,39.2 80.5,39.3 80.2,39.5 C79.2,40.1 78.8,41.4 79.4,42.5 C80,43.5 81.3,43.9 82.4,43.3 C82.9,43 83.3,42.5 83.4,42 C83.5,41.5 83.5,40.8 83.2,40.3 C82.9,39.8 82.4,39.4 81.9,39.3 C81.7,39.2 81.5,39.2 81.3,39.2 Z"></path>
                <path d="M56.8,51 C56.7,51 56.6,51 56.5,50.9 C56.1,50.7 55.9,50.3 56.1,49.9 L62.7,34.6 C62.9,34.2 63.3,34 63.7,34.2 C64.1,34.4 64.3,34.8 64.1,35.2 L57.5,50.5 C57.3,50.8 57.1,51 56.8,51 Z"></path>
                <path d="M55.8,81.9 C55.5,81.9 55.2,81.7 55.1,81.3 C55,80.9 55.2,80.5 55.6,80.4 L71.7,76 C72.1,75.9 72.5,76.1 72.6,76.5 C72.7,76.9 72.5,77.3 72.1,77.4 L56,81.9 C55.9,81.9 55.8,81.9 55.8,81.9 Z"></path>
                <path d="M75.5,66.7 C75.4,66.7 75.3,66.7 75.2,66.6 C75,66.5 74.8,66.2 74.8,66 L74.1,56 C74.1,55.7 74.2,55.5 74.5,55.3 C74.7,55.2 75,55.2 75.3,55.3 L83.8,60.6 C84,60.7 84.2,61 84.2,61.2 C84.2,61.5 84.1,61.7 83.8,61.8 L76,66.5 C75.8,66.7 75.7,66.7 75.5,66.7 Z M75.7,57.5 L76.2,64.8 L81.9,61.4 L75.7,57.5 Z"></path>
                <path d="M10.8,70.6 C10.7,70.6 10.6,70.6 10.5,70.5 C10.3,70.4 10.1,70.1 10.1,69.9 L9.4,59.9 C9.4,59.6 9.5,59.4 9.8,59.2 C10,59.1 10.3,59.1 10.6,59.2 L19.1,64.5 C19.3,64.6 19.5,64.9 19.5,65.1 C19.5,65.4 19.4,65.6 19.1,65.7 L11.3,70.4 C11,70.5 10.9,70.6 10.8,70.6 Z M10.9,61.3 L11.4,68.6 L17.1,65.2 L10.9,61.3 Z"></path>
                <path d="M49.6,74.7 C49.5,74.7 49.3,74.7 49.2,74.6 L44.4,71.6 C44.2,71.4 44,71.2 44.1,70.9 C44.1,70.6 44.3,70.4 44.6,70.3 L45.8,69.9 L42.4,67.7 C42.2,67.5 42,67.3 42.1,67 C42.1,66.7 42.3,66.5 42.6,66.4 L43.8,66 L40.4,63.8 C40.1,63.6 39.9,63.1 40.2,62.8 C40.4,62.4 40.9,62.3 41.2,62.6 L46,65.6 C46.2,65.8 46.4,66 46.3,66.3 C46.2,66.6 46.1,66.8 45.8,66.9 L44.6,67.3 L48,69.5 C48.2,69.7 48.4,69.9 48.3,70.2 C48.3,70.5 48.1,70.7 47.8,70.8 L46.6,71.2 L50,73.4 C50.3,73.6 50.5,74.1 50.2,74.4 C50.1,74.6 49.9,74.7 49.6,74.7 Z"></path>
                <path d="M41.9,50 C41.5,50 41.2,49.7 41.2,49.3 C41.2,48.9 41.5,48.5 41.9,48.5 C43.9,48.4 45.5,46.9 45.8,44.9 C46.1,42.9 44.9,41 43,40.4 C42.6,40.3 42.4,39.9 42.5,39.5 C42.6,39.1 43.1,38.9 43.4,39 C46,39.8 47.6,42.4 47.2,45.1 C46.8,47.8 44.6,49.9 41.9,50 C41.9,50 41.9,50 41.9,50 Z"></path>
                <path d="M59,62.7 C58.5,62.7 58.1,62.3 58.1,61.8 C58.1,61.3 58.5,60.9 59,60.9 C59.5,60.9 59.9,61.3 59.9,61.8 C59.9,62.3 59.6,62.7 59,62.7 Z"></path>
                <path d="M90.6,95 C90.1,95 89.7,94.6 89.7,94.1 C89.7,93.6 90.1,93.2 90.6,93.2 C91.1,93.2 91.5,93.6 91.5,94.1 C91.5,94.6 91.1,95 90.6,95 Z"></path>
                <path d="M14.2,43.5 C13.7,43.5 13.3,43.1 13.3,42.6 C13.3,42.1 13.7,41.7 14.2,41.7 C14.7,41.7 15.1,42.1 15.1,42.6 C15.1,43.1 14.7,43.5 14.2,43.5 Z"></path>
                <path d="M42,31.9 C41.5,31.9 41.1,31.5 41.1,31 C41.1,30.5 41.5,30 42,30 C42.5,30 43,30.4 43,31 C43,31.6 42.5,31.9 42,31.9 Z"></path>
                <path d="M16.1,14.3 C15.6,14.3 15.2,13.9 15.2,13.4 C15.2,12.9 15.6,12.5 16.1,12.5 C16.6,12.5 17,12.9 17,13.4 C17,13.9 16.6,14.3 16.1,14.3 Z"></path>
                <path d="M45.2,8.1 C44.7,8.1 44.3,7.7 44.3,7.2 C44.3,6.7 44.7,6.3 45.2,6.3 C45.7,6.3 46.1,6.7 46.1,7.2 C46.1,7.7 45.7,8.1 45.2,8.1 Z"></path>
                <path d="M89.1,53.7 C88.6,53.7 88.2,53.3 88.2,52.8 C88.2,52.3 88.6,51.9 89.1,51.9 C89.6,51.9 90,52.3 90,52.8 C90,53.3 89.6,53.7 89.1,53.7 Z"></path>
                <path d="M91.7,71.9 C91.2,71.9 90.8,71.5 90.8,71 C90.8,70.5 91.2,70.1 91.7,70.1 C92.2,70.1 92.6,70.5 92.6,71 C92.6,71.5 92.2,71.9 91.7,71.9 Z"></path>
                <path d="M61.3,21.3 C60.8,21.3 60.4,20.9 60.4,20.4 C60.4,19.9 60.8,19.5 61.3,19.5 C61.8,19.5 62.2,19.9 62.2,20.4 C62.2,20.9 61.8,21.3 61.3,21.3 Z"></path>
                <path d="M90.7,14.5 C90.2,14.5 89.8,14.1 89.8,13.6 C89.8,13.1 90.2,12.7 90.7,12.7 C91.2,12.7 91.6,13.1 91.6,13.6 C91.6,14.1 91.2,14.5 90.7,14.5 Z"></path>
                <path d="M29.1,71.7 C28.6,71.7 28.2,71.3 28.2,70.8 C28.2,70.3 28.6,69.9 29.1,69.9 C29.6,69.9 30,70.3 30,70.8 C30,71.3 29.6,71.7 29.1,71.7 Z"></path>
                <path d="M63,93.3 C62.5,93.3 62.1,92.9 62.1,92.4 C62.1,91.9 62.5,91.5 63,91.5 C63.5,91.5 63.9,91.9 63.9,92.4 C63.9,92.9 63.5,93.3 63,93.3 Z"></path>
                <path d="M9.6,81 C9.1,81 8.7,80.6 8.7,80.1 C8.7,79.6 9.1,79.2 9.6,79.2 C10.1,79.2 10.5,79.6 10.5,80.1 C10.5,80.6 10.1,81 9.6,81 Z"></path>
                <path d="M17.9,93.2 C17.4,93.2 17,92.8 17,92.3 C17,91.8 17.4,91.4 17.9,91.4 C18.4,91.4 18.8,91.8 18.8,92.3 C18.8,92.8 18.4,93.2 17.9,93.2 Z"></path>
                <path d="M6.5,96.6 C6,96.6 5.6,96.2 5.6,95.7 C5.6,95.2 6,94.8 6.5,94.8 C7,94.8 7.4,95.2 7.4,95.7 C7.4,96.2 7,96.6 6.5,96.6 Z"></path>
                <path d="M75.5,95 C75.3,94.9 75,94.9 74.7,95 L66.7,100 L69.5,100 L74.2,97.1 L74,100 L75.5,100 L75.8,95.7 C75.8,95.4 75.7,95.2 75.5,95 Z"></path>
                <path d="M4.1,59.4 C4.1,59.7 4.4,60 4.8,60 C4.8,60 4.9,60 4.9,60 C5.3,59.9 5.6,59.5 5.5,59.1 C5,56.4 2.7,54.5 0,54.5 L0,56 C2,56 3.7,57.4 4.1,59.4 Z"></path>
                <path d="M2.9,13.6 C2.7,13.9 2.8,14.4 3.1,14.6 C3.2,14.7 3.4,14.7 3.5,14.7 C3.7,14.7 4,14.6 4.1,14.4 C5.6,12.2 5.4,9.1 3.5,7.2 C2.5,6.2 1.3,5.7 -4.4408921e-16,5.6 L-4.4408921e-16,7.1 C0.9,7.2 1.7,7.6 2.4,8.3 C3.8,9.8 4,12 2.9,13.6 Z"></path>
                <path d="M6.5,40.1 C6.6,40.1 6.8,40.1 6.9,40 C7.2,39.8 7.3,39.3 7.1,39 L0,28.3 L0,31 L5.9,39.8 C6.1,39.9 6.3,40.1 6.5,40.1 Z"></path>
                <path d="M20.3,0.5 C20,0.5 19.7,0.7 19.6,1 C19.5,1.3 19.6,1.6 19.8,1.8 L22.6,4.7 L21.3,4.8 C21,4.8 20.7,5 20.6,5.3 C20.5,5.6 20.6,5.9 20.8,6.1 L24.8,10.2 C24.9,10.4 25.1,10.4 25.3,10.4 C25.5,10.4 25.7,10.3 25.8,10.2 C26.1,9.9 26.1,9.4 25.8,9.1 L23,6.2 L24.3,6.1 C24.6,6.1 24.9,5.9 25,5.6 C25.1,5.3 25,5 24.8,4.8 L22,1.9 L23.3,1.8 C23.6,1.8 23.9,1.6 24,1.3 C24.1,1 24,0.7 23.8,0.5 L23.3,0 L21.2,0 L21.6,0.4 L20.3,0.5 Z"></path>
                <path d="M53.7,3.3 C53.8,3.3 53.8,3.3 53.9,3.3 C54.2,3.3 54.6,3.1 54.6,2.7 C54.7,2.3 54.4,1.9 54,1.8 C52.1,1.4 50.7,0.7 49.6,-2.22044605e-16 L47.3,-2.22044605e-16 C48.7,1.4 50.7,2.6 53.7,3.3 Z"></path>
                <path d="M4.2,85.4 C4.2,83.4 2.5,81.7 0.5,81.7 C0.3,81.7 0.1,81.7 0,81.8 L0,83.3 C0.2,83.3 0.3,83.2 0.5,83.2 C1.7,83.2 2.7,84.2 2.7,85.4 C2.7,86.6 1.7,87.6 0.5,87.6 C0.3,87.6 0.1,87.6 0,87.5 L0,89 C0.2,89 0.3,89 0.5,89 C2.6,89.1 4.2,87.4 4.2,85.4 Z"></path>
                <path d="M95,60 C95.4,60.1 95.8,59.8 95.9,59.4 C96.3,57.4 98,56 100,56 C100,56 100,56 100,56 L100,54.5 C100,54.5 100,54.5 100,54.5 C97.3,54.5 94.9,56.4 94.5,59.1 C94.4,59.5 94.6,59.9 95,60 Z"></path>
                <path d="M100,87.5 C99,87.3 98.3,86.4 98.3,85.4 C98.3,84.4 99,83.5 100,83.3 L100,81.8 C98.2,82.1 96.8,83.6 96.8,85.4 C96.8,87.3 98.2,88.8 100,89 L100,87.5 Z"></path>
                <path d="M96.3,6.6 C96,6.8 95.9,7.3 96.1,7.6 C96.3,7.9 96.8,8 97.1,7.8 C98,7.3 99,7 100,7.2 L100,5.7 C98.7,5.5 97.4,5.8 96.3,6.6 Z"></path>
                <path d="M74.4,6.4 C74.5,6.4 74.6,6.4 74.7,6.3 C75,6.2 75.1,6 75.2,5.7 L75.5,0 L74,0 L73.7,4.4 L68,0.9 L69.6,0 L66.8,0 L66.3,0.3 C66,0.5 65.9,0.7 65.9,1 C65.9,1.3 66,1.5 66.3,1.6 L74,6.3 C74.1,6.4 74.3,6.4 74.4,6.4 Z"></path>
                <path d="M96.8,24.9 C96.5,25.1 96.4,25.6 96.6,25.9 L100,31 L100,28.3 L97.8,25.1 C97.6,24.7 97.1,24.6 96.8,24.9 Z"></path>
                <path d="M46,93 C46,92.6 45.7,92.2 45.3,92.2 C44.9,92.2 44.5,92.5 44.5,92.9 C44.5,93 44.3,96.9 47.3,100 L49.6,100 C45.8,97.3 46,93.3 46,93 Z"></path>
                <path d="M18.8,96.5 C18.5,96.8 18.5,97.3 18.8,97.6 L21.2,100.1 L23.3,100.1 L19.9,96.6 C19.6,96.2 19.1,96.2 18.8,96.5 Z"></path>
            </g>
        </g>
    </g>
</svg>
