<svg xmlns="http://www.w3.org/2000/svg" class="cogwheel" viewBox="-10 -10 532 700">
  <path class="fil1" id="XMLID_12_" d="M497.7,102c-4-1-8-1-13-2c-2-7-4-13-8-20c3-3,5-6,8-9c5-8,4-18-2-24l-16-16c-6-6-16-7-24-2c-3,3-6,5-9,8
    c-7-4-13-6-20-8c-1-5-1-9-2-13c-1-8-9-15-18-15h-22c-9,0-17,7-18,15c-1,4-1,8-2,13c-7,2-13,4-20,8c-3-3-6-5-10-8c-7-5-17-4-23,2
    l-16,16c-6,6-7,16-2,24c3,3,5,6,8,9c-4,7-7,13-9,20c-4,1-8,1-12,2c-9,1-15,9-15,18v22c0,9,6,17,15,18c4,1,8,1,12,2c2,7,5,13,9,20
    c-3,3-5,6-8,10c-5,7-4,17,2,23l16,16c6,6,16,7,23,2c4-3,7-5,10-8c7,4,13,7,20,9c1,4,1,8,2,12c1,9,9,15,18,15h22c9,0,17-6,18-15
    c1-4,1-8,2-12c7-2,13-5,20-9c3,3,6,5,9,8c8,5,18,4,24-2l16-16c6-6,7-16,2-23c-3-4-5-7-8-10c4-7,6-13,8-20c5-1,9-1,13-2
    c8-1,15-9,15-18v-22C512.7,111,505.7,103,497.7,102z M382.7,183c-28,0-52-24-52-52s24-52,52-52s52,24,52,52S410.7,183,382.7,183z"/>
  <path class="fil0" id="XMLID_7_" d="M329.7,370c-6-4-11-7-17-10c2-11,2-22,0-33c6-3,11-7,17-10c9-5,13-17,9-27l-12-28c-4-10-15-15-25-13
    c-6,2-12,4-19,5c-7-9-14-16-23-23c1-7,3-13,5-19c2-10-3-21-13-25l-28-12c-10-4-22,0-27,9c-3,6-7,11-10,17c-11-2-22-2-33,0
    c-3-6-7-11-10-17c-5-9-17-13-26-9l-29,12c-9,4-15,15-12,25c1,6,3,12,4,19c-8,7-16,14-23,23c-6-1-13-3-19-5c-10-2-21,3-25,13l-11,28
    c-4,10-1,22,8,27c6,3,11,7,17,10c-2,11-2,22,0,33c-6,3-11,7-17,10c-9,5-12,17-8,26l11,29c4,9,15,15,25,12c6-1,13-3,19-4
    c7,8,15,16,23,23c-1,6-3,13-4,19c-3,10,3,21,12,25l29,11c2,1,5,2,8,2c7,0,14-4,18-10c3-6,7-11,10-17c11,2,22,2,33,0c3,6,7,11,10,17
    c5,9,17,12,27,8l28-11c10-4,15-15,13-25c-2-6-4-13-5-19c9-7,16-15,23-23c7,1,13,3,19,4c10,3,21-3,25-12l12-29
    C342.7,387,338.7,375,329.7,370z M200.4,414.6c-19.7,8.4-40.8,8.4-60.4,0c-18.3-7-33.7-22.5-40.8-40.8
    c-16.9-40.8,1.4-85.7,40.8-102.6c9.8-2.8,21.1-5.6,30.9-5.6c29.5,0,59,18.3,71.7,47.8C258,352.7,239.7,399.1,200.4,414.6z"/>
  <path class="fil1" id="XMLID_1_" d="M497.7,527c-4-1-8-1-13-2c-2-7-4-13-8-20c3-3,5-6,8-9c5-8,4-18-2-24l-16-16c-6-6-16-7-24-2c-3,3-6,5-9,8
    c-7-4-13-6-20-8c-1-5-1-9-2-13c-1-8-9-15-18-15h-22c-9,0-17,7-18,15c-1,4-1,8-2,13c-7,2-13,4-20,8c-3-3-6-5-10-8c-7-5-17-4-23,2
    l-16,16c-6,6-7,16-2,24c3,3,5,6,8,9c-4,7-7,13-9,20c-4,1-8,1-12,2c-9,1-15,9-15,18v22c0,9,6,17,15,18c4,1,8,1,12,2c2,7,5,13,9,20
    c-3,3-5,6-8,10c-5,7-4,17,2,23l16,16c6,6,16,7,23,2c4-3,7-5,10-8c7,4,13,7,20,9c1,4,1,8,2,12c1,9,9,15,18,15h22c9,0,17-6,18-15
    c1-4,1-8,2-12c7-2,13-5,20-9c3,3,6,5,9,8c8,5,18,4,24-2l16-16c6-6,7-16,2-23c-3-4-5-7-8-10c4-7,6-13,8-20c5-1,9-1,13-2
    c8-1,15-9,15-18v-22C512.7,536,505.7,528,497.7,527z M382.7,608c-28,0-52-24-52-52s24-52,52-52s52,24,52,52S410.7,608,382.7,608z"/>
</svg>