<?xml version="1.0" encoding="UTF-8"?>
<svg width="1360px" height="1000px" viewBox="0 0 1360 1000" version="1.1" xmlns="http://www.w3.org/2000/svg" xmlns:xlink="http://www.w3.org/1999/xlink">
    <!-- Generator: Sketch 44.1 (41455) - http://www.bohemiancoding.com/sketch -->
    <title>Pattern-minimal</title>
    <desc>Created with Sketch.</desc>
    <defs></defs>
    <g id="Style-Tiles" stroke="none" stroke-width="1" fill="none" fill-rule="evenodd" opacity="0.333956069">
        <g id="Editor-(editing)" transform="translate(0.000000, -24.000000)" fill="#EDEBE6">
            <g id="Pattern-minimal" transform="translate(-158.000000, 24.000000)">
                <ellipse id="Oval-4" cx="1313.19569" cy="177.637124" rx="177.606965" ry="177.637124"></ellipse>
                <path d="M684.985,232.37607 L898.591081,659.660775 L898.591081,659.660775 C902.542372,667.5647 899.33813,677.175251 891.434206,681.126542 C889.212772,682.23707 886.763314,682.815221 884.27976,682.815221 L457.580609,682.815221 L457.580609,682.815221 C450.400908,682.815221 444.580609,676.994923 444.580609,669.815221 C444.580609,667.797333 445.050357,665.807149 445.952661,664.002234 L661.729103,232.37607 L661.729103,232.37607 C664.939527,225.954131 672.7481,223.350684 679.170038,226.561109 C681.68652,227.819136 683.726972,229.859588 684.985,232.37607 Z" id="Triangle" stroke="#EDEBE6" stroke-width="51" transform="translate(672.431938, 454.000715) rotate(-40.000000) translate(-672.431938, -454.000715) "></path>
                <path d="M1434.27429,711.131559 L1576.47943,995.59013 L1576.47943,995.59013 C1580.43072,1003.49405 1577.22648,1013.10461 1569.32256,1017.0559 C1567.10112,1018.16643 1564.65167,1018.74458 1562.16811,1018.74458 L1278.27085,1018.74458 L1278.27085,1018.74458 C1271.09114,1018.74458 1265.27085,1012.92428 1265.27085,1005.74458 C1265.27085,1003.72669 1265.74059,1001.7365 1266.6429,999.931589 L1411.0184,711.131559 L1411.0184,711.131559 C1414.22882,704.70962 1422.03739,702.106174 1428.45933,705.316598 C1430.97581,706.574625 1433.01627,708.615077 1434.27429,711.131559 Z" id="Triangle" stroke="#EDEBE6" stroke-width="20" transform="translate(1421.721232, 861.343137) rotate(30.000000) translate(-1421.721232, -861.343137) "></path>
                <ellipse id="Oval-4" cx="986.339138" cy="850.766722" rx="60.2230514" ry="60.2332776"></ellipse>
                <ellipse id="Oval-4" cx="235.963838" cy="860" rx="212.963838" ry="213"></ellipse>
                <ellipse id="Oval-4" cx="212.963838" cy="213" rx="212.963838" ry="213"></ellipse>
            </g>
        </g>
    </g>
</svg>