<?xml version="1.0" encoding="UTF-8"?>
<svg width="1024px" height="1024px" viewBox="0 0 1024 1024" version="1.1" xmlns="http://www.w3.org/2000/svg" xmlns:xlink="http://www.w3.org/1999/xlink">
    <g stroke="none" stroke-width="1" fill="none" fill-rule="evenodd">
        <g stroke="#3DA099" fill="#3DA099">
            <g transform="translate(-77.000000, -70.000000)">
                <path d="M603.410014,974.257693 L715.365513,1198.16869 L715.365513,1198.16869 C719.317341,1206.07235 716.113752,1215.68312 708.210096,1219.63494 C705.988409,1220.74579 703.5386,1221.32411 701.054678,1221.32411 L477.656141,1221.32411 L477.656141,1221.32411 C470.476439,1221.32411 464.656141,1215.50381 464.656141,1208.32411 C464.656141,1206.30592 465.126027,1204.31545 466.028587,1202.51033 L580.154907,974.257693 L580.154907,974.257693 C583.365767,967.835973 591.174517,965.233056 597.596237,968.443917 C600.112094,969.701845 602.152086,971.741837 603.410014,974.257693 Z" id="Triangle" stroke-width="51" transform="translate(590.857162, 1094.196366) rotate(-30.000000) translate(-590.857162, -1094.196366) "></path>
                <path d="M1035.2645,876.083713 L1146.66099,1098.87668 L1146.66099,1098.87668 C1150.61282,1106.78034 1147.40923,1116.39111 1139.50557,1120.34293 C1137.28388,1121.45378 1134.83407,1122.0321 1132.35015,1122.0321 L910.069645,1122.0321 L910.069645,1122.0321 C902.889943,1122.0321 897.069645,1116.2118 897.069645,1109.0321 C897.069645,1107.01391 897.539531,1105.02344 898.442091,1103.21832 L1012.0094,876.083713 L1012.0094,876.083713 C1015.22026,869.661993 1023.02901,867.059076 1029.45073,870.269936 C1031.96658,871.527864 1034.00657,873.567857 1035.2645,876.083713 Z" id="Triangle" stroke-width="51" transform="translate(1022.711651, 995.463371) rotate(-10.000000) translate(-1022.711651, -995.463371) "></path>
                <path d="M224.552852,764.312546 L364.905441,1045.01772 L364.905441,1045.01772 C368.857269,1052.92138 365.653679,1062.53215 357.750023,1066.48398 C355.528336,1067.59482 353.078527,1068.17314 350.594606,1068.17314 L70.4018893,1068.17314 L70.4018893,1068.17314 C63.2221876,1068.17314 57.4018893,1062.35284 57.4018893,1055.17314 C57.4018893,1053.15495 57.8717755,1051.16448 58.7743358,1049.35936 L201.297745,764.312546 L201.297745,764.312546 C204.508605,757.890825 212.317355,755.287909 218.739075,758.498769 C221.254932,759.756697 223.294924,761.796689 224.552852,764.312546 Z" id="Triangle" stroke-width="51" transform="translate(212.000000, 912.648308) rotate(120.000000) translate(-212.000000, -912.648308) "></path>
                <circle stroke-width="61" cx="623" cy="771" r="111"></circle>
                <circle stroke-width="61" cx="206" cy="473" r="116"></circle>
                <circle stroke-width="61" cx="206" cy="473" r="116"></circle>
                <path d="M928.224243,407.765575 L1021.01898,593.355051 L1021.01898,593.355051 C1024.97081,601.258707 1021.76722,610.869475 1013.86356,614.821303 C1011.64188,615.932147 1009.19207,616.510468 1006.70815,616.510468 L821.631132,616.510468 L821.631132,616.510468 C814.45143,616.510468 808.631132,610.69017 808.631132,603.510468 C808.631132,601.492282 809.101018,599.501812 810.003578,597.696692 L904.969136,407.765575 L904.969136,407.765575 C908.179997,401.343855 915.988746,398.740938 922.410467,401.951798 C924.926323,403.209727 926.966315,405.249719 928.224243,407.765575 Z" id="Triangle" stroke-width="51" transform="translate(915.671391, 508.543486) rotate(-40.000000) translate(-915.671391, -508.543486) "></path>
                <path d="M593.989156,256.167983 L686.783894,441.757458 L686.783894,441.757458 C690.735722,449.661114 687.532132,459.271883 679.628476,463.223711 C677.40679,464.334555 674.95698,464.912876 672.473059,464.912876 L487.396045,464.912876 L487.396045,464.912876 C480.216343,464.912876 474.396045,459.092578 474.396045,451.912876 C474.396045,449.89469 474.865931,447.90422 475.768491,446.099099 L570.734049,256.167983 L570.734049,256.167983 C573.94491,249.746263 581.753659,247.143346 588.17538,250.354206 C590.691236,251.612134 592.731228,253.652127 593.989156,256.167983 Z" id="Triangle" stroke-width="51" transform="translate(581.436304, 356.945894) rotate(10.000000) translate(-581.436304, -356.945894) "></path>
                <path d="M928.224243,407.765575 L1021.01898,593.355051 L1021.01898,593.355051 C1024.97081,601.258707 1021.76722,610.869475 1013.86356,614.821303 C1011.64188,615.932147 1009.19207,616.510468 1006.70815,616.510468 L821.631132,616.510468 L821.631132,616.510468 C814.45143,616.510468 808.631132,610.69017 808.631132,603.510468 C808.631132,601.492282 809.101018,599.501812 810.003578,597.696692 L904.969136,407.765575 L904.969136,407.765575 C908.179997,401.343855 915.988746,398.740938 922.410467,401.951798 C924.926323,403.209727 926.966315,405.249719 928.224243,407.765575 Z" id="Triangle" stroke-width="51" transform="translate(915.671391, 508.543486) rotate(-40.000000) translate(-915.671391, -508.543486) "></path>
                <circle id="Oval-4" stroke-width="61" cx="206" cy="473" r="116"></circle>
                <circle id="Oval-4" stroke-width="61" cx="993" cy="116" r="116"></circle>
                <circle id="Oval-4" stroke-width="61" cx="322" cy="116" r="116"></circle>
            </g>
        </g>
    </g>
</svg>
