<?xml version="1.0" encoding="UTF-8"?>
<svg width="200px" height="20px" viewBox="0 0 332 33" version="1.1" xmlns="http://www.w3.org/2000/svg" xmlns:xlink="http://www.w3.org/1999/xlink">
    <g id="Style-Tiles" stroke="none" stroke-width="1" fill="none" fill-rule="evenodd">
        <g id="Editor" transform="translate(-36.000000, -297.000000)" fill-rule="nonzero" fill="#FE5D4B">
            <g id="Delmoment" transform="translate(36.000000, 297.000000)">
                <path d="M308.868852,13.2663934 C303.766393,18.7090164 300.02459,23.1311475 291.860656,23.1311475 C283.696721,23.1311475 279.614754,18.7090164 274.852459,13.2663934 C269.409836,7.48360656 262.946721,0.340163934 250.360656,0.340163934 C237.77459,0.340163934 230.971311,7.48360656 225.868852,13.2663934 C220.766393,18.7090164 217.02459,23.1311475 208.860656,23.1311475 C200.696721,23.1311475 196.614754,18.7090164 191.852459,13.2663934 C186.409836,7.48360656 179.946721,0.340163934 167.360656,0.340163934 C154.77459,0.340163934 147.971311,7.48360656 142.868852,13.2663934 C137.766393,18.7090164 134.02459,23.1311475 125.860656,23.1311475 C117.696721,23.1311475 113.614754,18.7090164 108.852459,13.2663934 C103.409836,7.48360656 96.9467213,0.340163934 84.3606557,0.340163934 C71.7745902,0.340163934 64.9713115,7.48360656 59.8688525,13.2663934 C54.7663934,18.7090164 51.0245902,23.1311475 42.8606557,23.1311475 C34.6967213,23.1311475 30.6147541,18.7090164 25.852459,13.2663934 C19.0491803,7.48360656 12.5860656,0 0,0 L0,10.204918 C8.16393443,10.204918 12.2459016,14.6270492 17.0081967,20.0696721 C22.4508197,25.852459 28.9139344,32.9959016 41.5,32.9959016 C54.0860656,32.9959016 60.8893443,25.852459 65.9918033,20.0696721 C71.0942623,14.6270492 74.8360656,10.204918 83,10.204918 C91.1639344,10.204918 95.2459016,14.6270492 100.008197,20.0696721 C105.45082,25.852459 111.913934,32.9959016 124.5,32.9959016 C137.086066,32.9959016 143.889344,25.852459 148.991803,20.0696721 C154.094262,14.6270492 157.836066,10.204918 166,10.204918 C174.163934,10.204918 178.245902,14.6270492 183.008197,20.0696721 C188.45082,25.852459 194.913934,32.9959016 207.5,32.9959016 C220.086066,32.9959016 226.889344,25.852459 231.991803,20.0696721 C237.094262,14.6270492 240.836066,10.204918 249,10.204918 C257.163934,10.204918 261.245902,14.6270492 266.008197,20.0696721 C271.45082,25.852459 277.913934,32.9959016 290.5,32.9959016 C303.086066,32.9959016 309.889344,25.852459 314.991803,20.0696721 C320.094262,14.6270492 323.836066,10.204918 332,10.204918 L332,0 C320.77459,0 314.311475,7.48360656 308.868852,13.2663934 Z" id="Shape" transform="translate(166.000000, 16.497951) scale(1, -1) translate(-166.000000, -16.497951) "></path>
            </g>
        </g>
    </g>
</svg>
